# xmcd CD database file
#
# Track frame offsets:
#	150
#	18036
#	33104
#	44921
#	58615
#	76659
#	91069
#	106908
#	121099
#	137154
#	151877
#	166653
#	179216
#	190975
#	205508
#	217563
#	230033
#	245496
#	262281
#	271148
#
# Disc length: 3841 seconds
#
# Revision: 1
# Processed by: cddbd v1.5.1PL0 Copyright (c) Steve Scherf et al.
# Submitted via: CDex 1.51
#
DISCID=050eff14
DTITLE=Dolly Parton - Queen of Country CD2
DYEAR=1900
DGENRE=
TTITLE0=Starting Over Again
TTITLE1=Tie Our Love (In a Double Knot)
TTITLE2=It's My Time
TTITLE3=The Seeker
TTITLE4=The House of the Rising Sun
TTITLE5=Heartbreak Express
TTITLE6=I Walk The Line
TTITLE7=I Really Got The Feeling
TTITLE8=Detroit City
TTITLE9=It's All Wrong, But It's All Right
TTITLE10=Downtown
TTITLE11=Mama Say a Prayer
TTITLE12=The Last Thing On My Mind (duet with Porter Wagoner)
TTITLE13=Harper Valley PTA
TTITLE14=To Daddy
TTITLE15=D.I.V.O.R.C.E
TTITLE16=Old Flames (Can't Hold a Candle to You)
TTITLE17=The Great Pretender
TTITLE18=We'll Get Ahead Someday (duet with Porter Wagoner)
TTITLE19=Save the Last Dance for me
EXTD=
EXTT0=
EXTT1=
EXTT2=
EXTT3=
EXTT4=
EXTT5=
EXTT6=
EXTT7=
EXTT8=
EXTT9=
EXTT10=
EXTT11=
EXTT12=
EXTT13=
EXTT14=
EXTT15=
EXTT16=
EXTT17=
EXTT18=
EXTT19=
PLAYORDER=
